<?xml version="1.0" encoding="UTF-8"?>
<!DOCTYPE svg PUBLIC "-//W3C//DTD SVG 1.1//EN" "http://www.w3.org/Graphics/SVG/1.1/DTD/svg11.dtd">
<svg xmlns="http://www.w3.org/2000/svg" version="1.1" width="128px" height="200px" style="shape-rendering:geometricPrecision; text-rendering:geometricPrecision; image-rendering:optimizeQuality; fill-rule:evenodd; clip-rule:evenodd" xmlns:xlink="http://www.w3.org/1999/xlink">
<g><path style="opacity:1" fill="#e2b90b" d="M 48.5,0.5 C 50.5,0.5 52.5,0.5 54.5,0.5C 54.5,1.83333 54.5,3.16667 54.5,4.5C 52.5,4.5 50.5,4.5 48.5,4.5C 48.5,3.16667 48.5,1.83333 48.5,0.5 Z"/></g>
<g><path style="opacity:0.867" fill="#231c22" d="M 47.5,-0.5 C 50.1667,-0.5 52.8333,-0.5 55.5,-0.5C 55.2308,1.42865 55.7308,3.09531 57,4.5C 57.5,4 58,3.5 58.5,3C 57.6634,1.98873 57.33,0.822066 57.5,-0.5C 61.5,-0.5 65.5,-0.5 69.5,-0.5C 70.1667,6.16667 70.8333,6.16667 71.5,-0.5C 74.1667,-0.5 76.8333,-0.5 79.5,-0.5C 79.5,2.5 79.5,5.5 79.5,8.5C 83.1974,9.00781 86.8641,9.67448 90.5,10.5C 90.1583,11.3382 89.4916,11.6716 88.5,11.5C 87.5084,11.3284 86.8417,11.6618 86.5,12.5C 86.1667,12.5 85.8333,12.5 85.5,12.5C 84.1048,10.6206 82.1048,9.62057 79.5,9.5C 79.1667,9.5 78.8333,9.5 78.5,9.5C 78.5,8.16667 78.5,6.83333 78.5,5.5C 78.5,5.16667 78.5,4.83333 78.5,4.5C 78.5,3.16667 78.5,1.83333 78.5,0.5C 76.5,0.5 74.5,0.5 72.5,0.5C 72.2322,2.09903 72.5655,3.43236 73.5,4.5C 73.5,4.83333 73.5,5.16667 73.5,5.5C 72.5,5.5 71.5,5.5 70.5,5.5C 70.1667,5.5 69.8333,5.5 69.5,5.5C 69.1667,5.5 68.8333,5.5 68.5,5.5C 68.5,5.16667 68.5,4.83333 68.5,4.5C 68.5,3.16667 68.5,1.83333 68.5,0.5C 65.5,0.5 62.5,0.5 59.5,0.5C 59.5,1.83333 59.5,3.16667 59.5,4.5C 59.5,4.83333 59.5,5.16667 59.5,5.5C 58.5084,5.32842 57.8417,5.66175 57.5,6.5C 57.1667,6.5 56.8333,6.5 56.5,6.5C 56.1583,5.66175 55.4916,5.32842 54.5,5.5C 54.5,5.16667 54.5,4.83333 54.5,4.5C 54.5,3.16667 54.5,1.83333 54.5,0.5C 52.5,0.5 50.5,0.5 48.5,0.5C 47.8333,0.5 47.5,0.166667 47.5,-0.5 Z"/></g>
<g><path style="opacity:1" fill="#e1b909" d="M 68.5,4.5 C 65.5,4.5 62.5,4.5 59.5,4.5C 59.5,3.16667 59.5,1.83333 59.5,0.5C 62.5,0.5 65.5,0.5 68.5,0.5C 68.5,1.83333 68.5,3.16667 68.5,4.5 Z"/></g>
<g><path style="opacity:1" fill="#907511" d="M 78.5,4.5 C 78.1667,4.5 77.8333,4.5 77.5,4.5C 77.5,3.5 77.5,2.5 77.5,1.5C 76.1667,1.5 74.8333,1.5 73.5,1.5C 73.5,2.5 73.5,3.5 73.5,4.5C 72.5655,3.43236 72.2322,2.09903 72.5,0.5C 74.5,0.5 76.5,0.5 78.5,0.5C 78.5,1.83333 78.5,3.16667 78.5,4.5 Z"/></g>
<g><path style="opacity:1" fill="#fcd205" d="M 77.5,4.5 C 76.1667,4.5 74.8333,4.5 73.5,4.5C 73.5,3.5 73.5,2.5 73.5,1.5C 74.8333,1.5 76.1667,1.5 77.5,1.5C 77.5,2.5 77.5,3.5 77.5,4.5 Z"/></g>
<g><path style="opacity:0.067" fill="#3e387a" d="M 46.5,1.5 C 47.1524,2.4486 47.4857,3.61527 47.5,5C 47.3917,6.68113 46.7251,7.8478 45.5,8.5C 46.3686,6.28298 46.702,3.94965 46.5,1.5 Z"/></g>
<g><path style="opacity:1" fill="#c3a310" d="M 78.5,5.5 C 78.5,6.83333 78.5,8.16667 78.5,9.5C 77.4138,9.38002 76.7472,8.71335 76.5,7.5C 76.7472,6.28665 77.4138,5.61998 78.5,5.5 Z"/></g>
<g><path style="opacity:1" fill="#d7b40f" d="M 45.5,9.5 C 47.0481,9.82124 47.7148,10.8212 47.5,12.5C 45.9519,12.1788 45.2852,11.1788 45.5,9.5 Z"/></g>
<g><path style="opacity:1" fill="#ae9211" d="M 79.5,9.5 C 82.1048,9.62057 84.1048,10.6206 85.5,12.5C 85.5,12.8333 85.5,13.1667 85.5,13.5C 84.5,13.5 83.5,13.5 82.5,13.5C 82.5,14.5 82.5,15.5 82.5,16.5C 81.5,16.5 80.5,16.5 79.5,16.5C 79.3601,14.8762 80.0267,13.7096 81.5,13C 80.0267,12.2904 79.3601,11.1238 79.5,9.5 Z"/></g>
<g><path style="opacity:1" fill="#3b2d13" d="M 46.5,-0.5 C 46.8333,-0.5 47.1667,-0.5 47.5,-0.5C 47.5,0.166667 47.8333,0.5 48.5,0.5C 48.5,1.83333 48.5,3.16667 48.5,4.5C 50.5,4.5 52.5,4.5 54.5,4.5C 54.5,4.83333 54.5,5.16667 54.5,5.5C 53.5,5.5 52.5,5.5 51.5,5.5C 51.5,6.83333 51.5,8.16667 51.5,9.5C 53.1667,9.5 54.8333,9.5 56.5,9.5C 56.5,8.5 56.5,7.5 56.5,6.5C 56.8333,6.5 57.1667,6.5 57.5,6.5C 57.5,7.5 57.5,8.5 57.5,9.5C 59.1667,9.5 60.8333,9.5 62.5,9.5C 62.5,8.16667 62.5,6.83333 62.5,5.5C 61.5,5.5 60.5,5.5 59.5,5.5C 59.5,5.16667 59.5,4.83333 59.5,4.5C 62.5,4.5 65.5,4.5 68.5,4.5C 68.5,4.83333 68.5,5.16667 68.5,5.5C 66.8333,5.5 65.1667,5.5 63.5,5.5C 63.5,6.83333 63.5,8.16667 63.5,9.5C 65.5,9.5 67.5,9.5 69.5,9.5C 69.5,8.16667 69.5,6.83333 69.5,5.5C 69.8333,5.5 70.1667,5.5 70.5,5.5C 70.5,6.83333 70.5,8.16667 70.5,9.5C 72.1667,9.5 73.8333,9.5 75.5,9.5C 75.8432,7.51676 75.1765,6.18342 73.5,5.5C 73.5,5.16667 73.5,4.83333 73.5,4.5C 74.8333,4.5 76.1667,4.5 77.5,4.5C 77.8333,4.5 78.1667,4.5 78.5,4.5C 78.5,4.83333 78.5,5.16667 78.5,5.5C 77.4138,5.61998 76.7472,6.28665 76.5,7.5C 76.7472,8.71335 77.4138,9.38002 78.5,9.5C 78.8333,9.5 79.1667,9.5 79.5,9.5C 79.3601,11.1238 80.0267,12.2904 81.5,13C 80.0267,13.7096 79.3601,14.8762 79.5,16.5C 80.5,16.5 81.5,16.5 82.5,16.5C 82.5,15.5 82.5,14.5 82.5,13.5C 83.5,13.5 84.5,13.5 85.5,13.5C 84.8333,14.1667 84.1667,14.8333 83.5,15.5C 83.3284,16.4916 83.6618,17.1583 84.5,17.5C 84.5,18.1667 84.5,18.8333 84.5,19.5C 84.1667,19.5 83.8333,19.5 83.5,19.5C 82.713,17.8958 81.3797,17.2291 79.5,17.5C 79.5,18.5 79.5,19.5 79.5,20.5C 79.1667,20.5 78.8333,20.5 78.5,20.5C 78.5,19.5 78.5,18.5 78.5,17.5C 78.5,16.8333 78.5,16.1667 78.5,15.5C 77.6661,14.2521 76.3328,13.5854 74.5,13.5C 72.6672,13.5854 71.3339,14.2521 70.5,15.5C 70.5,16.1667 70.1667,16.5 69.5,16.5C 69.5,15.5 69.5,14.5 69.5,13.5C 68.5,13.5 67.5,13.5 66.5,13.5C 65.209,13.7373 64.209,13.404 63.5,12.5C 67.4221,11.8826 67.4221,11.2159 63.5,10.5C 62.5,10.8333 61.5,11.1667 60.5,11.5C 60.9569,12.2975 61.6236,12.6309 62.5,12.5C 62.1667,13.5 61.5,14.1667 60.5,14.5C 59.791,13.596 58.791,13.2627 57.5,13.5C 57.5,14.5 57.5,15.5 57.5,16.5C 57.5,16.8333 57.5,17.1667 57.5,17.5C 56.5,17.5 55.5,17.5 54.5,17.5C 54.5,18.5 54.5,19.5 54.5,20.5C 55.5,20.5 56.5,20.5 57.5,20.5C 57.5,20.8333 57.5,21.1667 57.5,21.5C 54.5,21.5 51.5,21.5 48.5,21.5C 48.2322,23.099 48.5655,24.4324 49.5,25.5C 49.1583,26.3382 48.4916,26.6716 47.5,26.5C 47.5,25.1667 47.5,23.8333 47.5,22.5C 47.5,21.8333 47.5,21.1667 47.5,20.5C 47.5,19.8333 47.5,19.1667 47.5,18.5C 47.1667,17.8333 46.8333,17.1667 46.5,16.5C 47.3382,16.1583 47.6716,15.4916 47.5,14.5C 47.5,13.8333 47.5,13.1667 47.5,12.5C 47.7148,10.8212 47.0481,9.82124 45.5,9.5C 44.1667,9.5 42.8333,9.5 41.5,9.5C 42.5676,8.56552 43.901,8.23219 45.5,8.5C 46.7251,7.8478 47.3917,6.68113 47.5,5C 47.4857,3.61527 47.1524,2.4486 46.5,1.5C 46.5,0.833333 46.5,0.166667 46.5,-0.5 Z"/></g>
<g><path style="opacity:1" fill="#e0b80b" d="M 73.5,10.5 C 75.288,10.2148 76.9547,10.5481 78.5,11.5C 77.6667,11.8333 76.8333,12.1667 76,12.5C 74.6244,12.3158 73.7911,11.6491 73.5,10.5 Z"/></g>
<g><path style="opacity:1" fill="#f1c50c" d="M 67.5,10.5 C 69.288,10.2148 70.9547,10.5481 72.5,11.5C 71.6667,11.8333 70.8333,12.1667 70,12.5C 68.6244,12.3158 67.7911,11.6491 67.5,10.5 Z"/></g>
<g><path style="opacity:1" fill="#efc20b" d="M 63.5,12.5 C 63.1667,12.5 62.8333,12.5 62.5,12.5C 61.6236,12.6309 60.9569,12.2975 60.5,11.5C 61.5,11.1667 62.5,10.8333 63.5,10.5C 67.4221,11.2159 67.4221,11.8826 63.5,12.5 Z"/></g>
<g><path style="opacity:1" fill="#f5c80c" d="M 54.5,10.5 C 56.288,10.2148 57.9547,10.5481 59.5,11.5C 58.6667,11.8333 57.8333,12.1667 57,12.5C 55.6244,12.3158 54.7911,11.6491 54.5,10.5 Z"/></g>
<g><path style="opacity:1" fill="#ebc40e" d="M 48.5,10.5 C 50.288,10.2148 51.9547,10.5481 53.5,11.5C 52.6667,11.8333 51.8333,12.1667 51,12.5C 49.6244,12.3158 48.7911,11.6491 48.5,10.5 Z"/></g>
<g><path style="opacity:1" fill="#dfb70c" d="M 68.5,5.5 C 68.8333,5.5 69.1667,5.5 69.5,5.5C 69.5,6.83333 69.5,8.16667 69.5,9.5C 67.5,9.5 65.5,9.5 63.5,9.5C 63.5,8.16667 63.5,6.83333 63.5,5.5C 65.1667,5.5 66.8333,5.5 68.5,5.5 Z"/></g>
<g><path style="opacity:1" fill="#deb70c" d="M 59.5,5.5 C 60.5,5.5 61.5,5.5 62.5,5.5C 62.5,6.83333 62.5,8.16667 62.5,9.5C 60.8333,9.5 59.1667,9.5 57.5,9.5C 57.5,8.5 57.5,7.5 57.5,6.5C 57.8417,5.66175 58.5084,5.32842 59.5,5.5 Z"/></g>
<g><path style="opacity:1" fill="#ddb80c" d="M 54.5,5.5 C 55.4916,5.32842 56.1583,5.66175 56.5,6.5C 56.5,7.5 56.5,8.5 56.5,9.5C 54.8333,9.5 53.1667,9.5 51.5,9.5C 51.5,8.16667 51.5,6.83333 51.5,5.5C 52.5,5.5 53.5,5.5 54.5,5.5 Z"/></g>
<g><path style="opacity:1" fill="#cead0e" d="M 48.5,5.5 C 49.5862,5.61998 50.2528,6.28665 50.5,7.5C 50.1667,8.16667 49.8333,8.83333 49.5,9.5C 48.5713,8.31116 48.238,6.97782 48.5,5.5 Z"/></g>
<g><path style="opacity:1" fill="#dab80c" d="M 70.5,5.5 C 71.5,5.5 72.5,5.5 73.5,5.5C 75.1765,6.18342 75.8432,7.51676 75.5,9.5C 73.8333,9.5 72.1667,9.5 70.5,9.5C 70.5,8.16667 70.5,6.83333 70.5,5.5 Z"/></g>
<g><path style="opacity:1" fill="#e7c40b" d="M 88.5,11.5 C 89.5511,12.2223 90.2178,13.2223 90.5,14.5C 88.5283,15.5167 87.195,14.85 86.5,12.5C 86.8417,11.6618 87.5084,11.3284 88.5,11.5 Z"/></g>
<g><path style="opacity:1" fill="#e5be0d" d="M 113.5,13.5 C 110.633,16.3143 108.3,15.981 106.5,12.5C 109.138,9.96384 111.471,10.2972 113.5,13.5 Z"/></g>
<g><path style="opacity:1" fill="#ebc30c" d="M 33.5,13.5 C 35.6516,14.0768 35.985,15.2435 34.5,17C 32.8067,17.484 31.4733,16.984 30.5,15.5C 30.9731,14.0937 31.9731,13.427 33.5,13.5 Z"/></g>
<g><path style="opacity:1" fill="#eac50c" d="M 14.5,15.5 C 12.8384,20.5363 11.505,20.5363 10.5,15.5C 11.8333,14.1667 13.1667,14.1667 14.5,15.5 Z"/></g>
<g><path style="opacity:0.8" fill="#312727" d="M 35.5,11.5 C 34.8333,12.1667 34.1667,12.8333 33.5,13.5C 31.9731,13.427 30.9731,14.0937 30.5,15.5C 30.1667,15.5 29.8333,15.5 29.5,15.5C 27.847,15.6596 26.5137,16.3263 25.5,17.5C 24.5084,17.3284 23.8417,17.6618 23.5,18.5C 23.1667,18.5 22.8333,18.5 22.5,18.5C 22.5,18.1667 22.5,17.8333 22.5,17.5C 22.1667,16.8333 21.8333,16.1667 21.5,15.5C 21.5,14.8333 21.1667,14.5 20.5,14.5C 17.8325,10.495 15.8325,10.8283 14.5,15.5C 13.1667,14.1667 11.8333,14.1667 10.5,15.5C 9.66175,15.8417 9.32842,16.5084 9.5,17.5C 8.04125,17.4326 6.70792,17.7659 5.5,18.5C 4.66175,18.8417 4.32842,19.5084 4.5,20.5C 2.45079,20.2942 2.11746,19.4609 3.5,18C 8.34341,15.1506 13.1767,12.3172 18,9.5C 20.3508,11.5186 22.3508,13.8519 24,16.5C 27.5586,14.1358 31.392,12.4691 35.5,11.5 Z"/></g>
<g><path style="opacity:1" fill="#efc50c" d="M 20.5,14.5 C 18.5979,16.1511 16.5979,16.4845 14.5,15.5C 15.8325,10.8283 17.8325,10.495 20.5,14.5 Z"/></g>
<g><path style="opacity:1" fill="#ebc40a" d="M 91.5,16.5 C 91.5,15.8333 91.5,15.1667 91.5,14.5C 92.5676,13.5655 93.901,13.2322 95.5,13.5C 95.5,14.5 95.5,15.5 95.5,16.5C 94.1667,16.5 92.8333,16.5 91.5,16.5 Z"/></g>
<g><path style="opacity:1" fill="#f0c70a" d="M 29.5,15.5 C 30.9361,18.5699 29.9361,19.7366 26.5,19C 25.944,18.6174 25.6107,18.1174 25.5,17.5C 26.5137,16.3263 27.847,15.6596 29.5,15.5 Z"/></g>
<g><path style="opacity:1" fill="#ebc610" d="M 91.5,17.5 C 91.5,18.8333 90.8333,19.5 89.5,19.5C 87.0888,16.8542 87.7554,16.1875 91.5,17.5 Z"/></g>
<g><path style="opacity:1" fill="#f3cb0c" d="M 115.5,14.5 C 116.5,14.8333 117.167,15.5 117.5,16.5C 116.518,17.1408 115.518,17.8075 114.5,18.5C 113.583,17.8728 112.583,17.5394 111.5,17.5C 112.262,15.7376 113.596,14.7376 115.5,14.5 Z"/></g>
<g><path style="opacity:1" fill="#eac20a" d="M 9.5,17.5 C 10.9323,19.7986 10.2656,21.4653 7.5,22.5C 6.29488,21.4231 5.62822,20.0898 5.5,18.5C 6.70792,17.7659 8.04125,17.4326 9.5,17.5 Z"/></g>
<g><path style="opacity:1" fill="#e4bc0e" d="M 21.5,15.5 C 21.8333,16.1667 22.1667,16.8333 22.5,17.5C 20.6115,18.604 18.9448,19.9373 17.5,21.5C 16.8333,21.1667 16.1667,20.8333 15.5,20.5C 16.6061,17.9228 18.6061,16.2561 21.5,15.5 Z"/></g>
<g><path style="opacity:1" fill="#f6ca0b" d="M 118.5,16.5 C 119.683,17.5045 121.016,18.3378 122.5,19C 121.619,19.7083 120.953,20.5416 120.5,21.5C 116.289,20.9988 115.622,19.3321 118.5,16.5 Z"/></g>
<g><path style="opacity:1" fill="#efc40d" d="M 22.5,18.5 C 22.8333,18.5 23.1667,18.5 23.5,18.5C 24.9063,18.9731 25.573,19.9731 25.5,21.5C 21.0567,23.0659 20.0567,22.0659 22.5,18.5 Z"/></g>
<g><path style="opacity:0.6" fill="#382e2c" d="M 120.5,22.5 C 120.5,22.1667 120.5,21.8333 120.5,21.5C 120.953,20.5416 121.619,19.7083 122.5,19C 121.016,18.3378 119.683,17.5045 118.5,16.5C 118.167,16.5 117.833,16.5 117.5,16.5C 117.167,15.5 116.5,14.8333 115.5,14.5C 115.158,13.6618 114.492,13.3284 113.5,13.5C 111.471,10.2972 109.138,9.96384 106.5,12.5C 106.712,10.6159 107.712,9.28255 109.5,8.5C 114.657,11.8315 119.657,15.3315 124.5,19C 123.355,20.4021 122.022,21.5688 120.5,22.5 Z"/></g>
<g><path style="opacity:1" fill="#574413" d="M 41.5,9.5 C 42.8333,9.5 44.1667,9.5 45.5,9.5C 45.2852,11.1788 45.9519,12.1788 47.5,12.5C 47.5,13.1667 47.5,13.8333 47.5,14.5C 46.325,14.281 45.325,14.6143 44.5,15.5C 44.9569,16.2975 45.6236,16.6309 46.5,16.5C 46.8333,17.1667 47.1667,17.8333 47.5,18.5C 46.1667,18.5 44.8333,18.5 43.5,18.5C 43.5,19.5 43.5,20.5 43.5,21.5C 44.9587,21.5674 46.2921,21.2341 47.5,20.5C 47.5,21.1667 47.5,21.8333 47.5,22.5C 44.5,22.1667 43.1667,23.5 43.5,26.5C 44.8333,26.5 46.1667,26.5 47.5,26.5C 48.4916,26.6716 49.1583,26.3382 49.5,25.5C 52.1667,25.5 54.8333,25.5 57.5,25.5C 58.5676,26.4345 59.901,26.7678 61.5,26.5C 61.1961,27.1499 60.8627,27.8165 60.5,28.5C 62.396,29.4656 64.396,29.7989 66.5,29.5C 66.5,28.5 66.5,27.5 66.5,26.5C 66.8333,26.5 67.1667,26.5 67.5,26.5C 67.5,27.8333 67.5,29.1667 67.5,30.5C 69.1667,30.5 70.8333,30.5 72.5,30.5C 72.5,29.1667 72.5,27.8333 72.5,26.5C 71.5,26.5 70.5,26.5 69.5,26.5C 69.5,26.1667 69.5,25.8333 69.5,25.5C 69.8333,25.5 70.1667,25.5 70.5,25.5C 72.8333,25.5 75.1667,25.5 77.5,25.5C 78.4345,24.4324 78.7678,23.099 78.5,21.5C 75.5,21.5 72.5,21.5 69.5,21.5C 69.5,21.1667 69.5,20.8333 69.5,20.5C 70.5,20.5 71.5,20.5 72.5,20.5C 72.5,19.5 72.5,18.5 72.5,17.5C 71.5,17.5 70.5,17.5 69.5,17.5C 69.5,17.1667 69.5,16.8333 69.5,16.5C 70.1667,16.5 70.5,16.1667 70.5,15.5C 73.1667,15.5 75.8333,15.5 78.5,15.5C 78.5,16.1667 78.5,16.8333 78.5,17.5C 76.8333,17.5 75.1667,17.5 73.5,17.5C 73.5,18.5 73.5,19.5 73.5,20.5C 75.1667,20.5 76.8333,20.5 78.5,20.5C 78.8333,20.5 79.1667,20.5 79.5,20.5C 80.4959,20.4142 81.3292,20.7476 82,21.5C 82.2784,20.5842 82.7784,19.9175 83.5,19.5C 83.8333,19.5 84.1667,19.5 84.5,19.5C 84.5,18.8333 84.5,18.1667 84.5,17.5C 85.3764,17.6309 86.0431,17.2975 86.5,16.5C 85.675,15.6143 84.675,15.281 83.5,15.5C 84.1667,14.8333 84.8333,14.1667 85.5,13.5C 85.5,13.1667 85.5,12.8333 85.5,12.5C 85.8333,12.5 86.1667,12.5 86.5,12.5C 87.195,14.85 88.5283,15.5167 90.5,14.5C 90.8333,14.5 91.1667,14.5 91.5,14.5C 91.5,15.1667 91.5,15.8333 91.5,16.5C 91.5,16.8333 91.5,17.1667 91.5,17.5C 87.7554,16.1875 87.0888,16.8542 89.5,19.5C 88.8333,19.5 88.5,19.8333 88.5,20.5C 88.4326,21.9587 88.7659,23.2921 89.5,24.5C 89.1667,24.5 88.8333,24.5 88.5,24.5C 87.1667,24.5 85.8333,24.5 84.5,24.5C 84.1667,24.5 83.8333,24.5 83.5,24.5C 82.8166,22.8235 81.4832,22.1568 79.5,22.5C 79.5,23.8333 79.5,25.1667 79.5,26.5C 77.8333,26.5 76.1667,26.5 74.5,26.5C 74.5,28.1667 74.5,29.8333 74.5,31.5C 70.8333,31.5 67.1667,31.5 63.5,31.5C 63.5,32.5 63.5,33.5 63.5,34.5C 67.6002,34.7633 71.6002,34.4299 75.5,33.5C 75.5,34.8333 74.8333,35.5 73.5,35.5C 67.5,35.5 61.5,35.5 55.5,35.5C 57.6074,34.5318 59.9407,34.1984 62.5,34.5C 62.5,33.5 62.5,32.5 62.5,31.5C 59.1667,31.5 55.8333,31.5 52.5,31.5C 52.5,30.1667 52.5,28.8333 52.5,27.5C 47.3572,26.6241 46.3572,27.9574 49.5,31.5C 49.8333,32.1667 50.1667,32.8333 50.5,33.5C 47.3033,33.4054 44.3033,34.0721 41.5,35.5C 41.5,35.1667 41.5,34.8333 41.5,34.5C 42.3062,32.8355 41.9729,31.1689 40.5,29.5C 38.2957,30.782 37.9624,32.4486 39.5,34.5C 38.8333,34.8333 38.1667,35.1667 37.5,35.5C 37.5,34.1667 37.5,32.8333 37.5,31.5C 37.5,30.8333 37.1667,30.5 36.5,30.5C 37.2341,29.2921 37.5674,27.9587 37.5,26.5C 36.0413,26.4326 34.7079,26.7659 33.5,27.5C 33.5,27.1667 33.5,26.8333 33.5,26.5C 33.5,25.8333 33.5,25.1667 33.5,24.5C 33.8333,24.5 34.1667,24.5 34.5,24.5C 35.8333,24.5 37.1667,24.5 38.5,24.5C 38.5,23.5 38.5,22.5 38.5,21.5C 37.1667,21.5 35.8333,21.5 34.5,21.5C 33.7647,18.0723 32.098,17.9056 29.5,21C 30.056,21.3826 30.3893,21.8826 30.5,22.5C 30.1667,22.5 29.8333,22.5 29.5,22.5C 28.2921,21.7659 26.9587,21.4326 25.5,21.5C 25.573,19.9731 24.9063,18.9731 23.5,18.5C 23.8417,17.6618 24.5084,17.3284 25.5,17.5C 25.6107,18.1174 25.944,18.6174 26.5,19C 29.9361,19.7366 30.9361,18.5699 29.5,15.5C 29.8333,15.5 30.1667,15.5 30.5,15.5C 31.4733,16.984 32.8067,17.484 34.5,17C 35.985,15.2435 35.6516,14.0768 33.5,13.5C 34.1667,12.8333 34.8333,12.1667 35.5,11.5C 37.2143,10.2616 39.2143,9.59495 41.5,9.5 Z"/></g>
<g><path style="opacity:1" fill="#eec80b" d="M 83.5,19.5 C 82.7784,19.9175 82.2784,20.5842 82,21.5C 81.3292,20.7476 80.4959,20.4142 79.5,20.5C 79.5,19.5 79.5,18.5 79.5,17.5C 81.3797,17.2291 82.713,17.8958 83.5,19.5 Z"/></g>
<g><path style="opacity:1" fill="#e6c60d" d="M 69.5,17.5 C 70.5,17.5 71.5,17.5 72.5,17.5C 72.5,18.5 72.5,19.5 72.5,20.5C 71.5,20.5 70.5,20.5 69.5,20.5C 69.5,19.5 69.5,18.5 69.5,17.5 Z"/></g>
<g><path style="opacity:1" fill="#e7c10b" d="M 47.5,18.5 C 47.5,19.1667 47.5,19.8333 47.5,20.5C 46.2921,21.2341 44.9587,21.5674 43.5,21.5C 43.5,20.5 43.5,19.5 43.5,18.5C 44.8333,18.5 46.1667,18.5 47.5,18.5 Z"/></g>
<g><path style="opacity:1" fill="#ecc60b" d="M 34.5,21.5 C 33.1667,21.8333 31.8333,22.1667 30.5,22.5C 30.3893,21.8826 30.056,21.3826 29.5,21C 32.098,17.9056 33.7647,18.0723 34.5,21.5 Z"/></g>
<g><path style="opacity:1" fill="#f6ca09" d="M 78.5,17.5 C 78.5,18.5 78.5,19.5 78.5,20.5C 76.8333,20.5 75.1667,20.5 73.5,20.5C 73.5,19.5 73.5,18.5 73.5,17.5C 75.1667,17.5 76.8333,17.5 78.5,17.5 Z"/></g>
<g><path style="opacity:1" fill="#e0c110" d="M 57.5,17.5 C 57.5,18.5 57.5,19.5 57.5,20.5C 56.5,20.5 55.5,20.5 54.5,20.5C 54.5,19.5 54.5,18.5 54.5,17.5C 55.5,17.5 56.5,17.5 57.5,17.5 Z"/></g>
<g><path style="opacity:1" fill="#f7c90a" d="M 48.5,17.5 C 50.1667,17.5 51.8333,17.5 53.5,17.5C 53.5,18.5 53.5,19.5 53.5,20.5C 51.8333,20.5 50.1667,20.5 48.5,20.5C 48.5,19.5 48.5,18.5 48.5,17.5 Z"/></g>
<g><path style="opacity:1" fill="#ebc40c" d="M 39.5,19.5 C 35.2991,19.558 34.7991,18.558 38,16.5C 39.0386,17.2438 39.5386,18.2438 39.5,19.5 Z"/></g>
<g><path style="opacity:1" fill="#f8d108" d="M 83.5,15.5 C 84.675,15.281 85.675,15.6143 86.5,16.5C 86.0431,17.2975 85.3764,17.6309 84.5,17.5C 83.6618,17.1583 83.3284,16.4916 83.5,15.5 Z"/></g>
<g><path style="opacity:1" fill="#f3cb09" d="M 40.5,15.5 C 44.2998,15.8194 44.4665,16.8194 41,18.5C 40.5172,17.552 40.3505,16.552 40.5,15.5 Z"/></g>
<g><path style="opacity:1" fill="#eecb0a" d="M 47.5,14.5 C 47.6716,15.4916 47.3382,16.1583 46.5,16.5C 45.6236,16.6309 44.9569,16.2975 44.5,15.5C 45.325,14.6143 46.325,14.281 47.5,14.5 Z"/></g>
<g><path style="opacity:1" fill="#1e1717" d="M 62.5,12.5 C 62.8333,12.5 63.1667,12.5 63.5,12.5C 64.209,13.404 65.209,13.7373 66.5,13.5C 67.1667,14.8333 68.1667,15.8333 69.5,16.5C 69.5,16.8333 69.5,17.1667 69.5,17.5C 69.5,18.5 69.5,19.5 69.5,20.5C 69.5,20.8333 69.5,21.1667 69.5,21.5C 69.5,22.8333 69.5,24.1667 69.5,25.5C 69.5,25.8333 69.5,26.1667 69.5,26.5C 68.8333,26.5 68.1667,26.5 67.5,26.5C 67.1667,26.5 66.8333,26.5 66.5,26.5C 64.8333,26.5 63.1667,26.5 61.5,26.5C 59.901,26.7678 58.5676,26.4345 57.5,25.5C 57.5,24.1667 57.5,22.8333 57.5,21.5C 57.5,21.1667 57.5,20.8333 57.5,20.5C 57.5,19.5 57.5,18.5 57.5,17.5C 57.5,17.1667 57.5,16.8333 57.5,16.5C 58.5,15.8333 59.5,15.1667 60.5,14.5C 61.5,14.1667 62.1667,13.5 62.5,12.5 Z"/></g>
<g><path style="opacity:1" fill="#d8b60a" d="M 48.5,13.5 C 51.2469,13.1866 53.9135,13.52 56.5,14.5C 56.2907,15.086 55.9574,15.586 55.5,16C 53.1902,16.4966 50.8568,16.6633 48.5,16.5C 48.5,15.5 48.5,14.5 48.5,13.5 Z"/></g>
<g><path style="opacity:1" fill="#ddba09" d="M 78.5,15.5 C 75.8333,15.5 73.1667,15.5 70.5,15.5C 71.3339,14.2521 72.6672,13.5854 74.5,13.5C 76.3328,13.5854 77.6661,14.2521 78.5,15.5 Z"/></g>
<g><path style="opacity:1" fill="#c7ab11" d="M 66.5,13.5 C 67.5,13.5 68.5,13.5 69.5,13.5C 69.5,14.5 69.5,15.5 69.5,16.5C 68.1667,15.8333 67.1667,14.8333 66.5,13.5 Z"/></g>
<g><path style="opacity:1" fill="#c8a911" d="M 60.5,14.5 C 59.5,15.1667 58.5,15.8333 57.5,16.5C 57.5,15.5 57.5,14.5 57.5,13.5C 58.791,13.2627 59.791,13.596 60.5,14.5 Z"/></g>
<g><path style="opacity:1" fill="#edc70e" d="M 37.5,11.5 C 38.5,11.5 39.5,11.5 40.5,11.5C 40.8333,14.5 39.5,15.8333 36.5,15.5C 36.4326,14.0413 36.7659,12.7079 37.5,11.5 Z"/></g>
<g><path style="opacity:1" fill="#f7cc0b" d="M 41.5,10.5 C 42.5,10.5 43.5,10.5 44.5,10.5C 44.5,11.5 44.5,12.5 44.5,13.5C 43.5,13.5 42.5,13.5 41.5,13.5C 41.5,12.5 41.5,11.5 41.5,10.5 Z"/></g>
<g><path style="opacity:1" fill="#f5d10a" d="M 84.5,19.5 C 85.5,19.5 86.5,19.5 87.5,19.5C 87.5,20.5 87.5,21.5 87.5,22.5C 86.5,22.5 85.5,22.5 84.5,22.5C 84.5,21.5 84.5,20.5 84.5,19.5 Z"/></g>
<g><path style="opacity:1" fill="#f5ce0c" d="M 39.5,19.5 C 40.5,19.5 41.5,19.5 42.5,19.5C 42.5,20.5 42.5,21.5 42.5,22.5C 41.5,22.5 40.5,22.5 39.5,22.5C 39.5,21.5 39.5,20.5 39.5,19.5 Z"/></g>
<g><path style="opacity:1" fill="#b4930d" d="M 69.5,21.5 C 72.5,21.5 75.5,21.5 78.5,21.5C 78.7678,23.099 78.4345,24.4324 77.5,25.5C 77.5,24.5 77.5,23.5 77.5,22.5C 75.1667,22.5 72.8333,22.5 70.5,22.5C 70.5,23.5 70.5,24.5 70.5,25.5C 70.1667,25.5 69.8333,25.5 69.5,25.5C 69.5,24.1667 69.5,22.8333 69.5,21.5 Z"/></g>
<g><path style="opacity:1" fill="#e1b90e" d="M 34.5,21.5 C 35.8333,21.5 37.1667,21.5 38.5,21.5C 38.5,22.5 38.5,23.5 38.5,24.5C 37.1667,24.5 35.8333,24.5 34.5,24.5C 34.5,23.5 34.5,22.5 34.5,21.5 Z"/></g>
<g><path style="opacity:1" fill="#fdcf03" d="M 77.5,25.5 C 75.1667,25.5 72.8333,25.5 70.5,25.5C 70.5,24.5 70.5,23.5 70.5,22.5C 72.8333,22.5 75.1667,22.5 77.5,22.5C 77.5,23.5 77.5,24.5 77.5,25.5 Z"/></g>
<g><path style="opacity:1" fill="#edc60a" d="M 88.5,20.5 C 90.3464,20.2222 91.6798,20.8888 92.5,22.5C 91.9953,23.9185 90.9953,24.5852 89.5,24.5C 88.7659,23.2921 88.4326,21.9587 88.5,20.5 Z"/></g>
<g><path style="opacity:1" fill="#e4b909" d="M 57.5,21.5 C 57.5,22.8333 57.5,24.1667 57.5,25.5C 54.8333,25.5 52.1667,25.5 49.5,25.5C 48.5655,24.4324 48.2322,23.099 48.5,21.5C 51.5,21.5 54.5,21.5 57.5,21.5 Z"/></g>
<g><path style="opacity:1" fill="#e2b90e" d="M 83.5,24.5 C 82.8166,26.1765 81.4832,26.8432 79.5,26.5C 79.5,25.1667 79.5,23.8333 79.5,22.5C 81.4832,22.1568 82.8166,22.8235 83.5,24.5 Z"/></g>
<g><path style="opacity:1" fill="#f2c80a" d="M 12.5,27.5 C 11.6618,27.1583 11.3284,26.4916 11.5,25.5C 13.3717,24.2054 15.0383,24.3721 16.5,26C 15.255,26.7914 13.9217,27.2914 12.5,27.5 Z"/></g>
<g><path style="opacity:1" fill="#f0ca0a" d="M 33.5,24.5 C 33.5,25.1667 33.5,25.8333 33.5,26.5C 32.0357,27.4054 30.7024,27.4054 29.5,26.5C 29.9577,23.6909 31.2911,23.0242 33.5,24.5 Z"/></g>
<g><path style="opacity:1" fill="#f3ca0a" d="M 47.5,22.5 C 47.5,23.8333 47.5,25.1667 47.5,26.5C 46.1667,26.5 44.8333,26.5 43.5,26.5C 43.1667,23.5 44.5,22.1667 47.5,22.5 Z"/></g>
<g><path style="opacity:1" fill="#c6a811" d="M 112.5,26.5 C 112.5,27.1667 112.833,27.5 113.5,27.5C 112.368,28.3543 111.035,28.3543 109.5,27.5C 109.082,26.7784 108.416,26.2784 107.5,26C 109.197,25.6155 110.863,25.7822 112.5,26.5 Z"/></g>
<g><path style="opacity:1" fill="#f0c70b" d="M 38.5,24.5 C 42.8138,24.7721 43.3138,26.1055 40,28.5C 38.8118,27.4366 38.3118,26.1033 38.5,24.5 Z"/></g>
<g><path style="opacity:1" fill="#edc709" d="M 36.5,30.5 C 34.8564,30.1898 33.8564,29.1898 33.5,27.5C 34.7079,26.7659 36.0413,26.4326 37.5,26.5C 37.5674,27.9587 37.2341,29.2921 36.5,30.5 Z"/></g>
<g><path style="opacity:1" fill="#f7cb08" d="M 54.5,27.5 C 56.1667,27.5 57.8333,27.5 59.5,27.5C 59.5,28.5 59.5,29.5 59.5,30.5C 57.8333,30.5 56.1667,30.5 54.5,30.5C 54.5,29.5 54.5,28.5 54.5,27.5 Z"/></g>
<g><path style="opacity:1" fill="#e3bc0a" d="M 67.5,26.5 C 68.1667,26.5 68.8333,26.5 69.5,26.5C 70.5,26.5 71.5,26.5 72.5,26.5C 72.5,27.8333 72.5,29.1667 72.5,30.5C 70.8333,30.5 69.1667,30.5 67.5,30.5C 67.5,29.1667 67.5,27.8333 67.5,26.5 Z"/></g>
<g><path style="opacity:1" fill="#f5cb0a" d="M 52.5,31.5 C 51.5,31.5 50.5,31.5 49.5,31.5C 46.3572,27.9574 47.3572,26.6241 52.5,27.5C 52.5,28.8333 52.5,30.1667 52.5,31.5 Z"/></g>
<g><path style="opacity:1" fill="#e0bb0b" d="M 61.5,26.5 C 63.1667,26.5 64.8333,26.5 66.5,26.5C 66.5,27.5 66.5,28.5 66.5,29.5C 64.396,29.7989 62.396,29.4656 60.5,28.5C 60.8627,27.8165 61.1961,27.1499 61.5,26.5 Z"/></g>
<g><path style="opacity:1" fill="#4e3d17" d="M 90.5,10.5 C 94.6149,12.2613 98.7816,13.928 103,15.5C 104.039,14.2899 105.206,13.2899 106.5,12.5C 108.3,15.981 110.633,16.3143 113.5,13.5C 114.492,13.3284 115.158,13.6618 115.5,14.5C 113.596,14.7376 112.262,15.7376 111.5,17.5C 112.583,17.5394 113.583,17.8728 114.5,18.5C 115.518,17.8075 116.518,17.1408 117.5,16.5C 117.833,16.5 118.167,16.5 118.5,16.5C 115.622,19.3321 116.289,20.9988 120.5,21.5C 120.5,21.8333 120.5,22.1667 120.5,22.5C 119.136,24.1911 117.803,25.8577 116.5,27.5C 115.5,27.5 114.5,27.5 113.5,27.5C 112.833,27.5 112.5,27.1667 112.5,26.5C 110.863,25.7822 109.197,25.6155 107.5,26C 108.416,26.2784 109.082,26.7784 109.5,27.5C 106.212,27.0156 103.545,28.0156 101.5,30.5C 99.0274,30.0882 97.6941,31.0882 97.5,33.5C 96.0413,33.4326 94.7079,33.7659 93.5,34.5C 94.27,37.3767 95.9367,38.3767 98.5,37.5C 98.5299,38.4972 98.0299,39.1639 97,39.5C 94.7735,38.6368 92.6068,37.6368 90.5,36.5C 89.6143,37.325 89.281,38.325 89.5,39.5C 88.5,39.5 87.5,39.5 86.5,39.5C 84.2143,39.405 82.2143,38.7384 80.5,37.5C 78.0971,37.552 75.7638,37.2186 73.5,36.5C 73.5,36.1667 73.5,35.8333 73.5,35.5C 74.8333,35.5 75.5,34.8333 75.5,33.5C 76.0065,32.1411 77.0065,31.1411 78.5,30.5C 79.2458,29.2638 79.5792,27.9305 79.5,26.5C 81.4832,26.8432 82.8166,26.1765 83.5,24.5C 83.8333,24.5 84.1667,24.5 84.5,24.5C 86.1616,29.5363 87.495,29.5363 88.5,24.5C 88.8333,24.5 89.1667,24.5 89.5,24.5C 90.9953,24.5852 91.9953,23.9185 92.5,22.5C 91.6798,20.8888 90.3464,20.2222 88.5,20.5C 88.5,19.8333 88.8333,19.5 89.5,19.5C 90.8333,19.5 91.5,18.8333 91.5,17.5C 91.5,17.1667 91.5,16.8333 91.5,16.5C 92.8333,16.5 94.1667,16.5 95.5,16.5C 95.5,15.5 95.5,14.5 95.5,13.5C 93.901,13.2322 92.5676,13.5655 91.5,14.5C 91.1667,14.5 90.8333,14.5 90.5,14.5C 90.2178,13.2223 89.5511,12.2223 88.5,11.5C 89.4916,11.6716 90.1583,11.3382 90.5,10.5 Z"/></g>
<g><path style="opacity:1" fill="#f1cc0b" d="M 93.5,31.5 C 93.7181,27.5491 95.0514,26.8824 97.5,29.5C 96.6798,31.1112 95.3464,31.7778 93.5,31.5 Z"/></g>
<g><path style="opacity:1" fill="#f1cc0a" d="M 98.5,25.5 C 99.5,25.5 100.5,25.5 101.5,25.5C 101.5,26.5 101.5,27.5 101.5,28.5C 98.5065,28.8543 97.5065,27.8543 98.5,25.5 Z"/></g>
<g><path style="opacity:1" fill="#eeca0c" d="M 89.5,25.5 C 91.9118,25.6941 92.9118,27.0274 92.5,29.5C 91.5,29.5 90.5,29.5 89.5,29.5C 89.5,28.1667 89.5,26.8333 89.5,25.5 Z"/></g>
<g><path style="opacity:1" fill="#e8bf0a" d="M 84.5,24.5 C 85.8333,24.5 87.1667,24.5 88.5,24.5C 87.495,29.5363 86.1616,29.5363 84.5,24.5 Z"/></g>
<g><path style="opacity:1" fill="#efcb0c" d="M 114.5,23.5 C 115.914,25.5983 115.248,26.5983 112.5,26.5C 111.086,24.4017 111.752,23.4017 114.5,23.5 Z"/></g>
<g><path style="opacity:1" fill="#e7c20c" d="M 102.5,23.5 C 104.153,22.4709 105.486,22.9709 106.5,25C 106.167,25.5 105.833,26 105.5,26.5C 103.787,26.1207 102.787,25.1207 102.5,23.5 Z"/></g>
<g><path style="opacity:1" fill="#f4cc0a" d="M 93.5,22.5 C 95.8004,22.5216 96.967,23.5216 97,25.5C 94.3422,26.694 93.1756,25.694 93.5,22.5 Z"/></g>
<g><path style="opacity:1" fill="#f3cb0b" d="M 107.5,20.5 C 108.995,20.4148 109.995,21.0815 110.5,22.5C 107.623,23.9109 106.623,23.2442 107.5,20.5 Z"/></g>
<g><path style="opacity:1" fill="#e3bd0d" d="M 102.5,23.5 C 100.571,23.7692 98.9047,23.2692 97.5,22C 99.7982,20.1418 101.465,20.6418 102.5,23.5 Z"/></g>
<g><path style="opacity:1" fill="#e8c810" d="M 114.5,23.5 C 113.942,22.2101 112.942,21.3768 111.5,21C 112.025,20.3076 112.692,19.8076 113.5,19.5C 115.167,20.6667 116.833,21.8333 118.5,23C 117.436,24.5106 116.103,24.6772 114.5,23.5 Z"/></g>
<g><path style="opacity:1" fill="#efca0a" d="M 92.5,18.5 C 94.3084,18.4914 95.9751,18.9914 97.5,20C 94.9634,22.2094 93.2967,21.7094 92.5,18.5 Z"/></g>
<g><path style="opacity:1" fill="#ecc50e" d="M 106.5,18.5 C 105.628,22.0894 103.961,22.4227 101.5,19.5C 102.714,17.2458 104.381,16.9125 106.5,18.5 Z"/></g>
<g><path style="opacity:1" fill="#ebc50c" d="M 111.5,17.5 C 111.53,18.4972 111.03,19.1639 110,19.5C 108.862,19.0109 107.695,18.6775 106.5,18.5C 105.438,17.4246 105.438,16.4246 106.5,15.5C 108.075,16.4565 109.742,17.1231 111.5,17.5 Z"/></g>
<g><path style="opacity:1" fill="#ecc40e" d="M 96.5,15.5 C 101.023,14.9768 102.023,16.3101 99.5,19.5C 97.4501,18.9234 96.4501,17.5901 96.5,15.5 Z"/></g>
<g><path style="opacity:1" fill="#261f21" d="M 109.5,27.5 C 111.035,28.3543 112.368,28.3543 113.5,27.5C 114.5,27.5 115.5,27.5 116.5,27.5C 110.854,33.8123 104.854,39.8123 98.5,45.5C 94.4081,43.4541 90.4081,41.4541 86.5,39.5C 87.5,39.5 88.5,39.5 89.5,39.5C 92.2467,40.956 95.08,42.2893 98,43.5C 101.358,42.0405 102.525,39.7072 101.5,36.5C 100.833,35.8333 100.167,35.1667 99.5,34.5C 100.674,33.4863 101.34,32.153 101.5,30.5C 103.545,28.0156 106.212,27.0156 109.5,27.5 Z"/></g>
<g><path style="opacity:1" fill="#49381b" d="M 20.5,14.5 C 21.1667,14.5 21.5,14.8333 21.5,15.5C 18.6061,16.2561 16.6061,17.9228 15.5,20.5C 16.1667,20.8333 16.8333,21.1667 17.5,21.5C 18.9448,19.9373 20.6115,18.604 22.5,17.5C 22.5,17.8333 22.5,18.1667 22.5,18.5C 20.0567,22.0659 21.0567,23.0659 25.5,21.5C 24.2197,23.1058 24.7197,24.1058 27,24.5C 28.301,24.3613 29.1344,23.6946 29.5,22.5C 29.8333,22.5 30.1667,22.5 30.5,22.5C 31.8333,22.1667 33.1667,21.8333 34.5,21.5C 34.5,22.5 34.5,23.5 34.5,24.5C 34.1667,24.5 33.8333,24.5 33.5,24.5C 31.2911,23.0242 29.9577,23.6909 29.5,26.5C 30.7024,27.4054 32.0357,27.4054 33.5,26.5C 33.5,26.8333 33.5,27.1667 33.5,27.5C 33.8564,29.1898 34.8564,30.1898 36.5,30.5C 37.1667,30.5 37.5,30.8333 37.5,31.5C 33.2105,31.7442 32.5439,33.4109 35.5,36.5C 36.1835,36.1373 36.8501,35.8039 37.5,35.5C 38.1667,35.1667 38.8333,34.8333 39.5,34.5C 40.1667,34.5 40.8333,34.5 41.5,34.5C 41.5,34.8333 41.5,35.1667 41.5,35.5C 38.3677,36.0526 38.0343,37.0526 40.5,38.5C 43.7156,37.2049 47.0489,36.5382 50.5,36.5C 50.5,35.5 50.5,34.5 50.5,33.5C 50.1667,32.8333 49.8333,32.1667 49.5,31.5C 50.5,31.5 51.5,31.5 52.5,31.5C 51.7659,32.7079 51.4326,34.0413 51.5,35.5C 52.8333,35.5 54.1667,35.5 55.5,35.5C 61.5,35.5 67.5,35.5 73.5,35.5C 73.5,35.8333 73.5,36.1667 73.5,36.5C 61.5745,35.7405 49.9079,37.0738 38.5,40.5C 38.1667,40.5 37.8333,40.5 37.5,40.5C 37.5,39.5 37.5,38.5 37.5,37.5C 34.3093,38.0922 31.3093,39.2589 28.5,41C 27.7476,41.6708 27.4142,42.5041 27.5,43.5C 27.1667,43.5 26.8333,43.5 26.5,43.5C 26.5,42.8333 26.5,42.1667 26.5,41.5C 28.3778,39.3001 30.7111,37.6335 33.5,36.5C 33.0814,35.3279 32.4147,34.3279 31.5,33.5C 30.3777,34.6302 29.0443,35.2969 27.5,35.5C 26.8333,35.5 26.5,35.1667 26.5,34.5C 30.0289,33.9703 30.3622,32.6369 27.5,30.5C 26.8165,30.8627 26.1499,31.1961 25.5,31.5C 23.7376,30.7377 22.7376,29.4044 22.5,27.5C 24.7633,26.4104 24.93,25.0771 23,23.5C 20.6275,24.3172 20.1275,25.6505 21.5,27.5C 19.3915,28.2374 17.2248,28.904 15,29.5C 13.699,29.3613 12.8656,28.6946 12.5,27.5C 13.9217,27.2914 15.255,26.7914 16.5,26C 15.0383,24.3721 13.3717,24.2054 11.5,25.5C 10.5084,25.3284 9.84171,25.6618 9.5,26.5C 7.63273,24.7163 5.96606,22.7163 4.5,20.5C 4.32842,19.5084 4.66175,18.8417 5.5,18.5C 5.62822,20.0898 6.29488,21.4231 7.5,22.5C 10.2656,21.4653 10.9323,19.7986 9.5,17.5C 9.32842,16.5084 9.66175,15.8417 10.5,15.5C 11.505,20.5363 12.8384,20.5363 14.5,15.5C 16.5979,16.4845 18.5979,16.1511 20.5,14.5 Z"/></g>
<g><path style="opacity:1" fill="#e6c00e" d="M 29.5,26.5 C 29.3059,28.9118 27.9726,29.9118 25.5,29.5C 25.6462,26.4502 26.9796,25.4502 29.5,26.5 Z"/></g>
<g><path style="opacity:1" fill="#f5cb0c" d="M 22.5,27.5 C 22.1667,27.5 21.8333,27.5 21.5,27.5C 20.1275,25.6505 20.6275,24.3172 23,23.5C 24.93,25.0771 24.7633,26.4104 22.5,27.5 Z"/></g>
<g><path style="opacity:1" fill="#ebc20d" d="M 25.5,21.5 C 26.9587,21.4326 28.2921,21.7659 29.5,22.5C 29.1344,23.6946 28.301,24.3613 27,24.5C 24.7197,24.1058 24.2197,23.1058 25.5,21.5 Z"/></g>
<g><path style="opacity:1" fill="#eec60e" d="M 17.5,21.5 C 21.3368,22.203 21.5034,23.5364 18,25.5C 16.2317,24.3181 16.0651,22.9848 17.5,21.5 Z"/></g>
<g><path style="opacity:1" fill="#efc70a" d="M 15.5,20.5 C 14.3123,23.393 12.3123,24.393 9.5,23.5C 10.7224,21.0217 12.7224,20.0217 15.5,20.5 Z"/></g>
<g><path style="opacity:1" fill="#ecc40b" d="M 30.5,28.5 C 33.8606,29.2032 34.1939,30.5365 31.5,32.5C 29.3576,31.5629 29.0243,30.2296 30.5,28.5 Z"/></g>
<g><path style="opacity:1" fill="#241e1f" d="M 11.5,25.5 C 11.3284,26.4916 11.6618,27.1583 12.5,27.5C 12.8656,28.6946 13.699,29.3613 15,29.5C 17.2248,28.904 19.3915,28.2374 21.5,27.5C 21.8333,27.5 22.1667,27.5 22.5,27.5C 22.7376,29.4044 23.7376,30.7377 25.5,31.5C 26.1098,32.391 26.4431,33.391 26.5,34.5C 26.5,35.1667 26.8333,35.5 27.5,35.5C 26.1716,36.5072 25.1716,37.8405 24.5,39.5C 24.8555,40.5223 25.5222,41.189 26.5,41.5C 26.5,42.1667 26.5,42.8333 26.5,43.5C 20.5,38.1667 14.8333,32.5 9.5,26.5C 9.84171,25.6618 10.5084,25.3284 11.5,25.5 Z"/></g>
<g><path style="opacity:1" fill="#f0c70b" d="M 44.5,27.5 C 46.256,28.5521 46.9227,30.2188 46.5,32.5C 42.621,31.7717 41.9543,30.1051 44.5,27.5 Z"/></g>
<g><path style="opacity:1" fill="#f4ca0d" d="M 85.5,29.5 C 86.5,29.5 87.5,29.5 88.5,29.5C 88.7521,32.9318 87.4188,33.9318 84.5,32.5C 85.1272,31.5832 85.4606,30.5832 85.5,29.5 Z"/></g>
<g><path style="opacity:1" fill="#ecc50d" d="M 26.5,34.5 C 26.4431,33.391 26.1098,32.391 25.5,31.5C 26.1499,31.1961 26.8165,30.8627 27.5,30.5C 30.3622,32.6369 30.0289,33.9703 26.5,34.5 Z"/></g>
<g><path style="opacity:1" fill="#f1c70a" d="M 41.5,34.5 C 40.8333,34.5 40.1667,34.5 39.5,34.5C 37.9624,32.4486 38.2957,30.782 40.5,29.5C 41.9729,31.1689 42.3062,32.8355 41.5,34.5 Z"/></g>
<g><path style="opacity:1" fill="#efc70b" d="M 80.5,27.5 C 84.4837,27.4723 85.4837,29.139 83.5,32.5C 82.5,32.5 81.5,32.5 80.5,32.5C 80.5,30.8333 80.5,29.1667 80.5,27.5 Z"/></g>
<g><path style="opacity:1" fill="#e4c00d" d="M 101.5,30.5 C 101.34,32.153 100.674,33.4863 99.5,34.5C 99.1583,33.6618 98.4916,33.3284 97.5,33.5C 97.6941,31.0882 99.0274,30.0882 101.5,30.5 Z"/></g>
<g><path style="opacity:1" fill="#ebc008" d="M 79.5,26.5 C 79.5792,27.9305 79.2458,29.2638 78.5,30.5C 77.0065,31.1411 76.0065,32.1411 75.5,33.5C 71.6002,34.4299 67.6002,34.7633 63.5,34.5C 63.5,33.5 63.5,32.5 63.5,31.5C 67.1667,31.5 70.8333,31.5 74.5,31.5C 74.5,29.8333 74.5,28.1667 74.5,26.5C 76.1667,26.5 77.8333,26.5 79.5,26.5 Z"/></g>
<g><path style="opacity:1" fill="#eac009" d="M 37.5,31.5 C 37.5,32.8333 37.5,34.1667 37.5,35.5C 36.8501,35.8039 36.1835,36.1373 35.5,36.5C 32.5439,33.4109 33.2105,31.7442 37.5,31.5 Z"/></g>
<g><path style="opacity:1" fill="#f2c609" d="M 52.5,31.5 C 55.8333,31.5 59.1667,31.5 62.5,31.5C 62.5,32.5 62.5,33.5 62.5,34.5C 59.9407,34.1984 57.6074,34.5318 55.5,35.5C 54.1667,35.5 52.8333,35.5 51.5,35.5C 51.4326,34.0413 51.7659,32.7079 52.5,31.5 Z"/></g>
<g><path style="opacity:1" fill="#f3c708" d="M 50.5,33.5 C 50.5,34.5 50.5,35.5 50.5,36.5C 47.0489,36.5382 43.7156,37.2049 40.5,38.5C 38.0343,37.0526 38.3677,36.0526 41.5,35.5C 44.3033,34.0721 47.3033,33.4054 50.5,33.5 Z"/></g>
<g><path style="opacity:1" fill="#e6bc0a" d="M 80.5,37.5 C 79.7387,36.6091 78.7387,35.9424 77.5,35.5C 76.6143,34.675 76.281,33.675 76.5,32.5C 80.5957,33.1906 84.5957,34.1906 88.5,35.5C 88.5,36.5 88.5,37.5 88.5,38.5C 85.8333,38.1667 83.1667,37.8333 80.5,37.5 Z"/></g>
<g><path style="opacity:1" fill="#efc50c" d="M 93.5,31.5 C 93.5,32.5 93.5,33.5 93.5,34.5C 92.2921,35.2341 90.9587,35.5674 89.5,35.5C 89.5,34.1667 89.5,32.8333 89.5,31.5C 90.8333,31.5 92.1667,31.5 93.5,31.5 Z"/></g>
<g><path style="opacity:1" fill="#eec70c" d="M 97.5,33.5 C 98.2341,34.7079 98.5674,36.0413 98.5,37.5C 95.9367,38.3767 94.27,37.3767 93.5,34.5C 94.7079,33.7659 96.0413,33.4326 97.5,33.5 Z"/></g>
<g><path style="opacity:1" fill="#655115" d="M 97.5,33.5 C 98.4916,33.3284 99.1583,33.6618 99.5,34.5C 100.167,35.1667 100.833,35.8333 101.5,36.5C 100.391,36.5569 99.391,36.8902 98.5,37.5C 98.5674,36.0413 98.2341,34.7079 97.5,33.5 Z"/></g>
<g><path style="opacity:1" fill="#cca912" d="M 26.5,41.5 C 25.5222,41.189 24.8555,40.5223 24.5,39.5C 25.1716,37.8405 26.1716,36.5072 27.5,35.5C 29.0443,35.2969 30.3777,34.6302 31.5,33.5C 32.4147,34.3279 33.0814,35.3279 33.5,36.5C 30.7111,37.6335 28.3778,39.3001 26.5,41.5 Z"/></g>
<g><path style="opacity:1" fill="#ecc30a" d="M 37.5,40.5 C 34.1667,41.5 30.8333,42.5 27.5,43.5C 27.4142,42.5041 27.7476,41.6708 28.5,41C 31.3093,39.2589 34.3093,38.0922 37.5,37.5C 37.5,38.5 37.5,39.5 37.5,40.5 Z"/></g>
<g><path style="opacity:1" fill="#ddb70e" d="M 98.5,37.5 C 99.391,36.8902 100.391,36.5569 101.5,36.5C 102.525,39.7072 101.358,42.0405 98,43.5C 95.08,42.2893 92.2467,40.956 89.5,39.5C 89.281,38.325 89.6143,37.325 90.5,36.5C 92.6068,37.6368 94.7735,38.6368 97,39.5C 98.0299,39.1639 98.5299,38.4972 98.5,37.5 Z"/></g>
<g><path style="opacity:1" fill="#36282f" d="M 37.5,40.5 C 37.8333,40.5 38.1667,40.5 38.5,40.5C 35.4461,42.5309 32.1128,44.1976 28.5,45.5C 27.4777,45.1445 26.811,44.4778 26.5,43.5C 26.8333,43.5 27.1667,43.5 27.5,43.5C 30.8333,42.5 34.1667,41.5 37.5,40.5 Z"/></g>
<g><path style="opacity:0.4" fill="#4f4b4b" d="M 119.5,158.5 C 119.5,157.833 119.5,157.167 119.5,156.5C 119.5,120.833 119.5,85.1667 119.5,49.5C 82.1667,49.5 44.8333,49.5 7.5,49.5C 7.19182,86.5241 7.52515,123.524 8.5,160.5C 7.73209,159.737 7.23209,158.737 7,157.5C 6.50001,121.168 6.33335,84.8349 6.5,48.5C 44.5,48.5 82.5,48.5 120.5,48.5C 120.832,85.3371 120.498,122.004 119.5,158.5 Z"/></g>
<g><path style="opacity:1" fill="#211d1c" d="M 119.5,156.5 C 118.833,121.833 118.167,87.1667 117.5,52.5C 81.5,52.5 45.5,52.5 9.5,52.5C 9.33335,87.8349 9.50001,123.168 10,158.5C 11.8333,163 15,166.167 19.5,168C 29.2129,168.217 38.8796,168.717 48.5,169.5C 39.3483,170.494 30.015,170.827 20.5,170.5C 14.3598,169.69 10.3598,166.357 8.5,160.5C 7.52515,123.524 7.19182,86.5241 7.5,49.5C 44.8333,49.5 82.1667,49.5 119.5,49.5C 119.5,85.1667 119.5,120.833 119.5,156.5 Z"/></g>
<g><path style="opacity:1" fill="#ebe7ea" d="M 117.5,52.5 C 117.667,87.5016 117.5,122.502 117,157.5C 115.594,162.573 112.428,166.073 107.5,168C 97.8333,168.333 88.1667,168.667 78.5,169C 72.5535,170.303 67.5535,173.136 63.5,177.5C 59.5188,173.008 54.5188,170.342 48.5,169.5C 38.8796,168.717 29.2129,168.217 19.5,168C 15,166.167 11.8333,163 10,158.5C 9.50001,123.168 9.33335,87.8349 9.5,52.5C 45.5,52.5 81.5,52.5 117.5,52.5 Z"/></g>
<g><path style="opacity:1" fill="#28176c" d="M 62.5,68.5 C 59.8127,68.3359 57.146,68.5026 54.5,69C 53.7093,74.0783 50.7093,76.9117 45.5,77.5C 43.7419,76.8721 42.2419,75.8721 41,74.5C 36.4529,78.7113 32.2862,83.2113 28.5,88C 29.7827,89.1357 30.7827,90.469 31.5,92C 29.5129,94.4763 28.5129,97.3097 28.5,100.5C 26.5,100.5 24.5,100.5 22.5,100.5C 22.5,106.833 22.5,113.167 22.5,119.5C 27.6187,119.157 30.2854,121.657 30.5,127C 30.1661,129.175 29.1661,131.008 27.5,132.5C 31.5487,137.224 36.0487,141.557 41,145.5C 42.1171,143.876 43.6171,142.876 45.5,142.5C 47.9441,144.054 50.6108,145.054 53.5,145.5C 53.5,147.5 53.5,149.5 53.5,151.5C 56.5,151.5 59.5,151.5 62.5,151.5C 62.6663,158.508 62.4996,165.508 62,172.5C 57.2551,168.597 51.7551,166.43 45.5,166C 36.5,165.667 27.5,165.333 18.5,165C 17,163.5 15.5,162 14,160.5C 12.5135,125.587 12.0135,90.5865 12.5,55.5C 29.1667,55.5 45.8333,55.5 62.5,55.5C 62.5,59.8333 62.5,64.1667 62.5,68.5 Z"/></g>
<g><path style="opacity:1" fill="#db2b1d" d="M 64.5,151.5 C 67.5,151.5 70.5,151.5 73.5,151.5C 73.2011,149.396 73.5344,147.396 74.5,145.5C 76.9154,144.695 79.2487,143.695 81.5,142.5C 82.646,143.145 83.646,143.978 84.5,145C 85.5,145.667 86.5,145.667 87.5,145C 91.3333,141.167 95.1667,137.333 99,133.5C 98.8047,131.255 97.6381,129.422 95.5,128C 97.1958,125.413 98.1958,122.579 98.5,119.5C 100.5,119.5 102.5,119.5 104.5,119.5C 104.5,113.167 104.5,106.833 104.5,100.5C 102.533,100.739 100.699,100.406 99,99.5C 98.0229,96.8976 96.8563,94.3976 95.5,92C 96.8333,90.6667 98.1667,89.3333 99.5,88C 95,83.5 90.5,79 86,74.5C 82.554,78.0667 78.7207,78.4001 74.5,75.5C 73.6314,73.283 73.298,70.9496 73.5,68.5C 70.8333,68.5 68.1667,68.5 65.5,68.5C 65.1667,68.5 64.8333,68.5 64.5,68.5C 64.5,64.1667 64.5,59.8333 64.5,55.5C 81.5,55.5 98.5,55.5 115.5,55.5C 115.667,89.1683 115.5,122.835 115,156.5C 113.988,160.719 111.488,163.552 107.5,165C 98.1667,165.333 88.8333,165.667 79.5,166C 74.208,167.206 69.3746,169.372 65,172.5C 64.5004,165.508 64.3337,158.508 64.5,151.5 Z"/></g>
<g><path style="opacity:1" fill="#561f15" d="M 65.5,68.5 C 68.1667,68.5 70.8333,68.5 73.5,68.5C 73.298,70.9496 73.6314,73.283 74.5,75.5C 72.6921,74.0821 72.0254,72.0821 72.5,69.5C 69.9407,69.8016 67.6074,69.4682 65.5,68.5 Z"/></g>
<g><path style="opacity:1" fill="#201b1b" d="M 62.5,68.5 C 63.1667,68.5 63.8333,68.5 64.5,68.5C 64.8333,68.5 65.1667,68.5 65.5,68.5C 67.6074,69.4682 69.9407,69.8016 72.5,69.5C 72.0254,72.0821 72.6921,74.0821 74.5,75.5C 78.7207,78.4001 82.554,78.0667 86,74.5C 90.5,79 95,83.5 99.5,88C 98.1667,89.3333 96.8333,90.6667 95.5,92C 96.8563,94.3976 98.0229,96.8976 99,99.5C 100.699,100.406 102.533,100.739 104.5,100.5C 104.5,106.833 104.5,113.167 104.5,119.5C 102.5,119.5 100.5,119.5 98.5,119.5C 98.1958,122.579 97.1958,125.413 95.5,128C 97.6381,129.422 98.8047,131.255 99,133.5C 95.1667,137.333 91.3333,141.167 87.5,145C 86.5,145.667 85.5,145.667 84.5,145C 83.646,143.978 82.646,143.145 81.5,142.5C 79.2487,143.695 76.9154,144.695 74.5,145.5C 73.5344,147.396 73.2011,149.396 73.5,151.5C 70.5,151.5 67.5,151.5 64.5,151.5C 63.8333,151.5 63.1667,151.5 62.5,151.5C 59.5,151.5 56.5,151.5 53.5,151.5C 53.5,149.5 53.5,147.5 53.5,145.5C 50.6108,145.054 47.9441,144.054 45.5,142.5C 43.6171,142.876 42.1171,143.876 41,145.5C 36.0487,141.557 31.5487,137.224 27.5,132.5C 29.1661,131.008 30.1661,129.175 30.5,127C 30.2854,121.657 27.6187,119.157 22.5,119.5C 22.5,113.167 22.5,106.833 22.5,100.5C 24.5,100.5 26.5,100.5 28.5,100.5C 28.5129,97.3097 29.5129,94.4763 31.5,92C 30.7827,90.469 29.7827,89.1357 28.5,88C 32.2862,83.2113 36.4529,78.7113 41,74.5C 42.2419,75.8721 43.7419,76.8721 45.5,77.5C 50.7093,76.9117 53.7093,74.0783 54.5,69C 57.146,68.5026 59.8127,68.3359 62.5,68.5 Z"/></g>
<g><path style="opacity:1" fill="#d3d2d3" d="M 71.5,143.5 C 70.5489,144.919 70.2155,146.585 70.5,148.5C 65.8333,148.5 61.1667,148.5 56.5,148.5C 56.5,146.833 56.5,145.167 56.5,143.5C 52.3934,143.354 48.7267,142.02 45.5,139.5C 44.084,141.139 42.4174,141.973 40.5,142C 37.3172,138.985 34.3172,135.818 31.5,132.5C 32.5,131.167 33.5,129.833 34.5,128.5C 31.9798,125.273 30.6464,121.607 30.5,117.5C 28.5,117.5 26.5,117.5 24.5,117.5C 24.5,112.5 24.5,107.5 24.5,102.5C 26.5,102.5 28.5,102.5 30.5,102.5C 30.6464,98.3934 31.9798,94.7267 34.5,91.5C 32.8608,90.084 32.0275,88.4174 32,86.5C 35,83.5 38,80.5 41,77.5C 42.0616,78.8993 43.395,79.8993 45,80.5C 48.6058,78.465 52.4391,77.1316 56.5,76.5C 56.5,74.8333 56.5,73.1667 56.5,71.5C 61.1667,71.5 65.8333,71.5 70.5,71.5C 70.1412,73.7659 70.8078,75.5993 72.5,77C 75.82,77.743 78.9867,78.9097 82,80.5C 83.605,79.8993 84.9384,78.8993 86,77.5C 89.5,81 93,84.5 96.5,88C 95.3147,89.353 93.9814,90.5197 92.5,91.5C 94.6939,94.5544 96.3605,97.8878 97.5,101.5C 99.0453,102.452 100.712,102.785 102.5,102.5C 102.5,107.5 102.5,112.5 102.5,117.5C 100.533,117.261 98.6995,117.594 97,118.5C 96.3116,122.209 94.8116,125.543 92.5,128.5C 93.5,129.833 94.5,131.167 95.5,132.5C 92.516,135.985 89.3493,139.318 86,142.5C 84.9805,141.313 83.8139,140.313 82.5,139.5C 78.951,141.238 75.2843,142.571 71.5,143.5 Z"/></g>
<g><path style="opacity:1" fill="#1b1a16" d="M 57.5,80.5 C 81.49,79.9906 93.3233,91.6573 93,115.5C 87.1819,133.833 74.6819,141.666 55.5,139C 38.3762,132.26 31.5429,119.76 35,101.5C 39.5268,91.1342 47.0268,84.1342 57.5,80.5 Z"/></g>
<g><path style="opacity:1" fill="#0d9040" d="M 80.5,131.5 C 81.3653,128.9 82.032,126.233 82.5,123.5C 82.523,121.933 82.023,120.6 81,119.5C 79.1053,124.954 76.9386,130.288 74.5,135.5C 55.7203,140.528 43.2203,133.861 37,115.5C 36.3333,111.5 36.3333,107.5 37,103.5C 38.3639,102.742 39.5305,103.242 40.5,105C 42.8098,105.497 45.1432,105.663 47.5,105.5C 47.2408,109.24 47.5741,112.906 48.5,116.5C 51.3714,119.113 54.2047,119.113 57,116.5C 57.2463,113.11 57.7463,109.777 58.5,106.5C 60.4233,105.692 62.4233,105.192 64.5,105C 67.4354,102.144 66.9354,100.311 63,99.5C 61.175,99.9434 59.3417,100.277 57.5,100.5C 57.1778,96.0243 54.8444,94.5243 50.5,96C 49.3204,97.8961 47.8204,99.3961 46,100.5C 43.2875,99.5675 40.7875,99.2341 38.5,99.5C 47.8592,82.7257 61.1925,78.5591 78.5,87C 89.1546,94.4934 92.9879,104.66 90,117.5C 88.1734,123.145 85.0067,127.812 80.5,131.5 Z"/></g>
<g><path style="opacity:1" fill="#e5e4e4" d="M 50.5,97.5 C 52.1667,97.5 53.8333,97.5 55.5,97.5C 55.3573,99.2624 55.6906,100.929 56.5,102.5C 54.6652,103.428 54.3318,104.594 55.5,106C 52.7471,109.003 53.0805,111.67 56.5,114C 56.3865,115.28 55.7199,116.113 54.5,116.5C 54.5105,115.559 54.0105,114.892 53,114.5C 51.4545,117.297 50.2878,117.13 49.5,114C 52.0918,111.147 52.0918,108.314 49.5,105.5C 49.6499,103.034 49.9832,100.368 50.5,97.5 Z"/></g>
<g><path style="opacity:1" fill="#b4bc28" d="M 75.5,112.5 C 74.325,112.719 73.325,112.386 72.5,111.5C 73.1667,111.167 73.8333,110.833 74.5,110.5C 73.0613,108.657 73.228,106.99 75,105.5C 75.3333,106.5 75.6667,107.5 76,108.5C 76.6543,107.304 77.1543,107.304 77.5,108.5C 76.8201,109.86 76.1534,111.193 75.5,112.5 Z"/></g>
<g><path style="opacity:1" fill="#91aa2c" d="M 68.5,131.5 C 68.5,132.5 68.5,133.5 68.5,134.5C 63.0987,133.229 60.7654,129.729 61.5,124C 61.104,119.963 62.2707,116.463 65,113.5C 65.3333,118.167 65.6667,122.833 66,127.5C 66.6082,129.066 67.4415,130.4 68.5,131.5 Z"/></g>
<g><path style="opacity:1" fill="#86a92d" d="M 75.5,112.5 C 76.4343,113.772 77.101,115.272 77.5,117C 77.289,122.539 75.6224,127.539 72.5,132C 71.0715,132.579 69.7382,132.412 68.5,131.5C 68.1463,129.161 68.813,126.994 70.5,125C 70.1667,123.333 69.8333,121.667 69.5,120C 70.9278,118.084 71.9278,115.917 72.5,113.5C 73.9217,114.777 74.9217,114.443 75.5,112.5 Z"/></g>
<g><path style="opacity:1" fill="#8fa52a" d="M 80.5,131.5 C 78.7541,133.252 76.7541,134.585 74.5,135.5C 76.9386,130.288 79.1053,124.954 81,119.5C 82.023,120.6 82.523,121.933 82.5,123.5C 82.032,126.233 81.3653,128.9 80.5,131.5 Z"/></g>
<g><path style="opacity:1" fill="#838082" d="M 71.5,143.5 C 71.5,145.5 71.5,147.5 71.5,149.5C 66.3054,149.821 61.3054,149.487 56.5,148.5C 61.1667,148.5 65.8333,148.5 70.5,148.5C 70.2155,146.585 70.5489,144.919 71.5,143.5 Z"/></g>
<g><path style="opacity:1" fill="#312e2e" d="M 117.5,52.5 C 118.167,87.1667 118.833,121.833 119.5,156.5C 119.5,157.167 119.5,157.833 119.5,158.5C 118.243,163.602 115.243,167.435 110.5,170C 100.225,171.233 89.8918,171.9 79.5,172C 73.1194,173.359 67.7861,176.525 63.5,181.5C 60.733,176.948 56.733,174.115 51.5,173C 41.0491,171.934 30.7158,171.1 20.5,170.5C 30.015,170.827 39.3483,170.494 48.5,169.5C 54.5188,170.342 59.5188,173.008 63.5,177.5C 67.5535,173.136 72.5535,170.303 78.5,169C 88.1667,168.667 97.8333,168.333 107.5,168C 112.428,166.073 115.594,162.573 117,157.5C 117.5,122.502 117.667,87.5016 117.5,52.5 Z"/></g>
<g><path style="opacity:0.333" fill="#303031" d="M 127.5,176.5 C 127.5,176.833 127.5,177.167 127.5,177.5C 113.163,177.333 98.8295,177.5 84.5,178C 85.4158,178.278 86.0825,178.778 86.5,179.5C 85.5655,180.568 85.2322,181.901 85.5,183.5C 72.1667,184.833 58.8333,184.833 45.5,183.5C 58.1667,183.5 70.8333,183.5 83.5,183.5C 83.5,181.167 83.5,178.833 83.5,176.5C 98.1667,176.5 112.833,176.5 127.5,176.5 Z"/></g>
<g><path style="opacity:1" fill="#393a3e" d="M -0.5,176.5 C 14.3428,176.171 29.0095,176.504 43.5,177.5C 29.1667,177.5 14.8333,177.5 0.5,177.5C 0.5,182.5 0.5,187.5 0.5,192.5C 0.166667,192.5 -0.166667,192.5 -0.5,192.5C -0.5,187.167 -0.5,181.833 -0.5,176.5 Z"/></g>
<g><path style="opacity:1" fill="#251d15" d="M 43.5,177.5 C 43.5,179.5 43.5,181.5 43.5,183.5C 42.8365,181.958 42.1698,180.291 41.5,178.5C 40.8933,178.624 40.56,178.957 40.5,179.5C 38.2872,180.773 35.9538,181.773 33.5,182.5C 33.1667,182.5 32.8333,182.5 32.5,182.5C 31.9002,183.9 30.9002,184.9 29.5,185.5C 28.5166,189.298 28.1832,193.298 28.5,197.5C 33.8333,197.5 39.1667,197.5 44.5,197.5C 62.5,197.5 80.5,197.5 98.5,197.5C 98.8168,193.298 98.4834,189.298 97.5,185.5C 96.0998,184.9 95.0998,183.9 94.5,182.5C 94.1667,182.5 93.8333,182.5 93.5,182.5C 91.0462,181.773 88.7128,180.773 86.5,179.5C 86.0825,178.778 85.4158,178.278 84.5,178C 98.8295,177.5 113.163,177.333 127.5,177.5C 127.5,182.5 127.5,187.5 127.5,192.5C 118.5,192.5 109.5,192.5 100.5,192.5C 99.5386,194.265 99.2053,196.265 99.5,198.5C 75.5,198.5 51.5,198.5 27.5,198.5C 27.5,196.833 27.5,195.167 27.5,193.5C 18.6822,192.507 9.68218,192.173 0.5,192.5C 0.5,187.5 0.5,182.5 0.5,177.5C 14.8333,177.5 29.1667,177.5 43.5,177.5 Z"/></g>
<g><path style="opacity:1" fill="#e2b90a" d="M 32.5,182.5 C 31.0695,182.421 29.7362,182.754 28.5,183.5C 27.5258,185.743 27.1924,188.076 27.5,190.5C 18.8333,190.5 10.1667,190.5 1.5,190.5C 1.5,186.5 1.5,182.5 1.5,178.5C 13.8378,178.333 26.1712,178.5 38.5,179C 36.1209,179.716 34.1209,180.883 32.5,182.5 Z"/></g>
<g><path style="opacity:1" fill="#c8a50c" d="M 125.5,180.5 C 124.167,180.5 122.833,180.5 121.5,180.5C 121.737,181.791 121.404,182.791 120.5,183.5C 120.179,181.952 119.179,181.285 117.5,181.5C 117.5,182.833 117.5,184.167 117.5,185.5C 116.624,185.631 115.957,185.298 115.5,184.5C 116.462,182.117 115.462,181.117 112.5,181.5C 112.5,183.5 112.5,185.5 112.5,187.5C 112.167,187.5 111.833,187.5 111.5,187.5C 111.5,185.5 111.5,183.5 111.5,181.5C 110.167,181.5 108.833,181.5 107.5,181.5C 107.227,183.451 107.893,184.951 109.5,186C 107.381,186.342 107.047,187.175 108.5,188.5C 107.167,188.5 105.833,188.5 104.5,188.5C 104.5,186.833 104.5,185.167 104.5,183.5C 105.29,184.609 105.79,185.942 106,187.5C 106.789,185.288 106.622,183.288 105.5,181.5C 107.292,180.691 109.292,180.191 111.5,180C 104.654,179.179 97.987,179.346 91.5,180.5C 90.5266,180.013 89.5266,179.513 88.5,179C 94.6667,178.833 100.833,178.667 107,178.5C 113.538,178.504 119.705,179.17 125.5,180.5 Z"/></g>
<g><path style="opacity:1" fill="#f5ca08" d="M 40.5,179.5 C 41.4345,180.568 41.7678,181.901 41.5,183.5C 38.6146,183.806 35.9479,183.473 33.5,182.5C 35.9538,181.773 38.2872,180.773 40.5,179.5 Z"/></g>
<g><path style="opacity:1" fill="#161015" d="M 16.5,181.5 C 17.791,181.263 18.791,181.596 19.5,182.5C 19.5,184.167 19.5,185.833 19.5,187.5C 18.6981,186.048 18.1981,184.382 18,182.5C 17.8019,184.382 17.3019,186.048 16.5,187.5C 16.5,185.5 16.5,183.5 16.5,181.5 Z"/></g>
<g><path style="opacity:1" fill="#534316" d="M 19.5,187.5 C 19.5,185.833 19.5,184.167 19.5,182.5C 21.0418,181.699 22.7085,181.366 24.5,181.5C 24.5,183.833 24.5,186.167 24.5,188.5C 22.7839,188.371 21.1172,188.038 19.5,187.5 Z"/></g>
<g><path style="opacity:1" fill="#f1c80c" d="M 86.5,179.5 C 88.7128,180.773 91.0462,181.773 93.5,182.5C 91.0521,183.473 88.3854,183.806 85.5,183.5C 85.2322,181.901 85.5655,180.568 86.5,179.5 Z"/></g>
<g><path style="opacity:1" fill="#120d16" d="M 4.5,181.5 C 5.5,181.5 6.5,181.5 7.5,181.5C 7.5,183.5 7.5,185.5 7.5,187.5C 6.84187,185.361 5.84187,183.361 4.5,181.5 Z"/></g>
<g><path style="opacity:1" fill="#856a12" d="M 19.5,187.5 C 18.5,188.833 17.5,188.833 16.5,187.5C 17.3019,186.048 17.8019,184.382 18,182.5C 18.1981,184.382 18.6981,186.048 19.5,187.5 Z"/></g>
<g><path style="opacity:1" fill="#544415" d="M 4.5,181.5 C 5.84187,183.361 6.84187,185.361 7.5,187.5C 6.45834,188.791 5.29167,188.791 4,187.5C 3.21086,185.288 3.37753,183.288 4.5,181.5 Z"/></g>
<g><path style="opacity:1" fill="#3e3312" d="M 40.5,179.5 C 40.56,178.957 40.8933,178.624 41.5,178.5C 42.1698,180.291 42.8365,181.958 43.5,183.5C 44.1667,183.5 44.8333,183.5 45.5,183.5C 58.8333,184.833 72.1667,184.833 85.5,183.5C 88.3854,183.806 91.0521,183.473 93.5,182.5C 93.8333,182.5 94.1667,182.5 94.5,182.5C 95.0998,183.9 96.0998,184.9 97.5,185.5C 74.8333,185.5 52.1667,185.5 29.5,185.5C 30.9002,184.9 31.9002,183.9 32.5,182.5C 32.8333,182.5 33.1667,182.5 33.5,182.5C 35.9479,183.473 38.6146,183.806 41.5,183.5C 41.7678,181.901 41.4345,180.568 40.5,179.5 Z"/></g>
<g><path style="opacity:1" fill="#493916" d="M 16.5,181.5 C 16.5,183.5 16.5,185.5 16.5,187.5C 15.7354,187.077 14.9021,186.743 14,186.5C 9.00581,189.308 7.17248,187.641 8.5,181.5C 9.83333,181.5 11.1667,181.5 12.5,181.5C 12.5,182.5 12.5,183.5 12.5,184.5C 13.5,184.5 14.5,184.5 15.5,184.5C 15.2627,183.209 15.596,182.209 16.5,181.5 Z"/></g>
<g><path style="opacity:1" fill="#eec20a" d="M 29.5,185.5 C 52.1667,185.5 74.8333,185.5 97.5,185.5C 97.5,189.167 97.5,192.833 97.5,196.5C 95.4727,196.662 93.4727,196.495 91.5,196C 92.624,195.751 93.624,195.251 94.5,194.5C 94.3764,193.893 94.0431,193.56 93.5,193.5C 93.5,191.5 93.5,189.5 93.5,187.5C 91.1667,187.5 88.8333,187.5 86.5,187.5C 85.8333,187.5 85.1667,187.5 84.5,187.5C 81.0401,188.26 80.7068,189.76 83.5,192C 81.6412,192.601 81.3079,193.434 82.5,194.5C 84.631,195.314 86.9644,195.814 89.5,196C 81.1667,196.667 72.8333,196.667 64.5,196C 65.7375,195.768 66.7375,195.268 67.5,194.5C 68.8333,192.5 68.8333,190.5 67.5,188.5C 66.5,187.167 65.5,187.167 64.5,188.5C 63.8333,188.5 63.1667,188.5 62.5,188.5C 60.1667,187.167 57.8333,187.167 55.5,188.5C 55.1667,188.5 54.8333,188.5 54.5,188.5C 54.1667,188.5 53.8333,188.5 53.5,188.5C 51.9504,187.28 50.2837,187.28 48.5,188.5C 47.5,187.167 46.5,187.167 45.5,188.5C 44.8333,188.5 44.1667,188.5 43.5,188.5C 42.4324,187.566 41.099,187.232 39.5,187.5C 39.5,189.5 39.5,191.5 39.5,193.5C 38.8365,191.958 38.1698,190.291 37.5,188.5C 36.8333,190.167 36.1667,191.833 35.5,193.5C 35.5259,191.626 35.1925,189.96 34.5,188.5C 33.5344,190.396 33.2011,192.396 33.5,194.5C 36.8333,195.833 40.1667,195.833 43.5,194.5C 44.1667,194.5 44.8333,194.5 45.5,194.5C 46.5,194.5 47.5,194.5 48.5,194.5C 53.0704,195.441 57.737,195.774 62.5,195.5C 56.5,196.167 50.5,196.833 44.5,197.5C 39.1667,197.5 33.8333,197.5 28.5,197.5C 28.1832,193.298 28.5166,189.298 29.5,185.5 Z"/></g>
<g><path style="opacity:1" fill="#f6c608" d="M 91.5,180.5 C 97.987,179.346 104.654,179.179 111.5,180C 109.292,180.191 107.292,180.691 105.5,181.5C 104.662,181.842 104.328,182.508 104.5,183.5C 104.5,185.167 104.5,186.833 104.5,188.5C 105.833,188.5 107.167,188.5 108.5,188.5C 109.609,188.443 110.609,188.11 111.5,187.5C 111.833,187.5 112.167,187.5 112.5,187.5C 113.999,188.494 115.666,188.494 117.5,187.5C 118.5,188.833 119.5,188.833 120.5,187.5C 120.5,186.167 120.5,184.833 120.5,183.5C 121.404,182.791 121.737,181.791 121.5,180.5C 122.833,180.5 124.167,180.5 125.5,180.5C 125.5,183.833 125.5,187.167 125.5,190.5C 116.833,190.5 108.167,190.5 99.5,190.5C 99.8076,188.076 99.4742,185.743 98.5,183.5C 97.2638,182.754 95.9305,182.421 94.5,182.5C 93.7095,181.599 92.7095,180.932 91.5,180.5 Z"/></g>
<g><path style="opacity:1" fill="#655314" d="M 120.5,187.5 C 119.5,188.833 118.5,188.833 117.5,187.5C 118.302,186.048 118.802,184.382 119,182.5C 119.198,184.382 119.698,186.048 120.5,187.5 Z"/></g>
<g><path style="opacity:1" fill="#3a2c16" d="M 111.5,187.5 C 110.609,188.11 109.609,188.443 108.5,188.5C 107.047,187.175 107.381,186.342 109.5,186C 107.893,184.951 107.227,183.451 107.5,181.5C 108.833,181.5 110.167,181.5 111.5,181.5C 111.5,183.5 111.5,185.5 111.5,187.5 Z"/></g>
<g><path style="opacity:1" fill="#161016" d="M 105.5,181.5 C 106.622,183.288 106.789,185.288 106,187.5C 105.79,185.942 105.29,184.609 104.5,183.5C 104.328,182.508 104.662,181.842 105.5,181.5 Z"/></g>
<g><path style="opacity:1" fill="#372b17" d="M 117.5,185.5 C 117.5,186.167 117.5,186.833 117.5,187.5C 115.666,188.494 113.999,188.494 112.5,187.5C 112.5,185.5 112.5,183.5 112.5,181.5C 115.462,181.117 116.462,182.117 115.5,184.5C 115.957,185.298 116.624,185.631 117.5,185.5 Z"/></g>
<g><path style="opacity:1" fill="#171315" d="M 120.5,183.5 C 120.5,184.833 120.5,186.167 120.5,187.5C 119.698,186.048 119.198,184.382 119,182.5C 118.802,184.382 118.302,186.048 117.5,187.5C 117.5,186.833 117.5,186.167 117.5,185.5C 117.5,184.167 117.5,182.833 117.5,181.5C 119.179,181.285 120.179,181.952 120.5,183.5 Z"/></g>
<g><path style="opacity:1" fill="#191418" d="M 43.5,188.5 C 43.5,190.5 43.5,192.5 43.5,194.5C 42.5,194.5 41.5,194.5 40.5,194.5C 40.5188,187.469 41.0188,187.136 42,193.5C 42.1981,191.618 42.6981,189.952 43.5,188.5 Z"/></g>
<g><path style="opacity:1" fill="#372c16" d="M 62.5,188.5 C 63.1667,188.5 63.8333,188.5 64.5,188.5C 65.3019,189.952 65.8019,191.618 66,193.5C 66.1981,191.618 66.6981,189.952 67.5,188.5C 68.8333,190.5 68.8333,192.5 67.5,194.5C 65.8333,194.5 64.1667,194.5 62.5,194.5C 61.5,194.5 60.5,194.5 59.5,194.5C 59.5,192.5 59.5,190.5 59.5,188.5C 60.5,188.5 61.5,188.5 62.5,188.5 Z"/></g>
<g><path style="opacity:1" fill="#403417" d="M 70.5,187.5 C 71.8221,187.33 72.9887,187.663 74,188.5C 74.4955,190.473 74.6621,192.473 74.5,194.5C 73.1667,194.5 71.8333,194.5 70.5,194.5C 70.5,192.167 70.5,189.833 70.5,187.5 Z"/></g>
<g><path style="opacity:1" fill="#2e2613" d="M 84.5,187.5 C 85.9526,188.825 85.6192,189.658 83.5,190C 85.0368,191.11 85.7035,192.61 85.5,194.5C 84.5,194.5 83.5,194.5 82.5,194.5C 81.3079,193.434 81.6412,192.601 83.5,192C 80.7068,189.76 81.0401,188.26 84.5,187.5 Z"/></g>
<g><path style="opacity:1" fill="#907612" d="M 43.5,188.5 C 42.6981,189.952 42.1981,191.618 42,193.5C 41.0188,187.136 40.5188,187.469 40.5,194.5C 41.5,194.5 42.5,194.5 43.5,194.5C 40.1667,195.833 36.8333,195.833 33.5,194.5C 35.7354,194.795 37.7354,194.461 39.5,193.5C 39.5,191.5 39.5,189.5 39.5,187.5C 41.099,187.232 42.4324,187.566 43.5,188.5 Z"/></g>
<g><path style="opacity:1" fill="#7f6a16" d="M 45.5,188.5 C 46.5,187.167 47.5,187.167 48.5,188.5C 47.6981,189.952 47.1981,191.618 47,193.5C 46.8019,191.618 46.3019,189.952 45.5,188.5 Z"/></g>
<g><path style="opacity:1" fill="#816c18" d="M 64.5,188.5 C 65.5,187.167 66.5,187.167 67.5,188.5C 66.6981,189.952 66.1981,191.618 66,193.5C 65.8019,191.618 65.3019,189.952 64.5,188.5 Z"/></g>
<g><path style="opacity:1" fill="#2f2414" d="M 39.5,193.5 C 37.7354,194.461 35.7354,194.795 33.5,194.5C 33.2011,192.396 33.5344,190.396 34.5,188.5C 35.1925,189.96 35.5259,191.626 35.5,193.5C 36.1667,191.833 36.8333,190.167 37.5,188.5C 38.1698,190.291 38.8365,191.958 39.5,193.5 Z"/></g>
<g><path style="opacity:1" fill="#6a5814" d="M 43.5,188.5 C 44.1667,188.5 44.8333,188.5 45.5,188.5C 45.5,190.5 45.5,192.5 45.5,194.5C 44.8333,194.5 44.1667,194.5 43.5,194.5C 43.5,192.5 43.5,190.5 43.5,188.5 Z"/></g>
<g><path style="opacity:1" fill="#140e12" d="M 45.5,188.5 C 46.3019,189.952 46.8019,191.618 47,193.5C 47.1981,191.618 47.6981,189.952 48.5,188.5C 48.5,190.5 48.5,192.5 48.5,194.5C 47.5,194.5 46.5,194.5 45.5,194.5C 45.5,192.5 45.5,190.5 45.5,188.5 Z"/></g>
<g><path style="opacity:1" fill="#312616" d="M 76.5,187.5 C 77.4959,187.414 78.3292,187.748 79,188.5C 79.4955,190.473 79.6621,192.473 79.5,194.5C 78.1667,194.5 76.8333,194.5 75.5,194.5C 75.298,192.05 75.6314,189.717 76.5,187.5 Z"/></g>
<g><path style="opacity:1" fill="#987d12" d="M 53.5,188.5 C 53.8333,188.5 54.1667,188.5 54.5,188.5C 54.5,190.5 54.5,192.5 54.5,194.5C 55.8333,194.5 57.1667,194.5 58.5,194.5C 58.9689,191.607 57.9689,189.607 55.5,188.5C 57.8333,187.167 60.1667,187.167 62.5,188.5C 61.5,188.5 60.5,188.5 59.5,188.5C 59.5,190.5 59.5,192.5 59.5,194.5C 60.5,194.5 61.5,194.5 62.5,194.5C 62.5,194.833 62.5,195.167 62.5,195.5C 57.737,195.774 53.0704,195.441 48.5,194.5C 48.5,192.5 48.5,190.5 48.5,188.5C 50.2837,187.28 51.9504,187.28 53.5,188.5 Z"/></g>
<g><path style="opacity:1" fill="#231b16" d="M 53.5,188.5 C 53.6621,190.527 53.4955,192.527 53,194.5C 52.3333,191.833 51.6667,191.833 51,194.5C 50.5045,192.527 50.3379,190.527 50.5,188.5C 51.5,188.5 52.5,188.5 53.5,188.5 Z"/></g>
<g><path style="opacity:1" fill="#3b2f16" d="M 54.5,188.5 C 54.8333,188.5 55.1667,188.5 55.5,188.5C 57.9689,189.607 58.9689,191.607 58.5,194.5C 57.1667,194.5 55.8333,194.5 54.5,194.5C 54.5,192.5 54.5,190.5 54.5,188.5 Z"/></g>
<g><path style="opacity:1" fill="#cfa90d" d="M 97.5,185.5 C 98.4834,189.298 98.8168,193.298 98.5,197.5C 80.5,197.5 62.5,197.5 44.5,197.5C 50.5,196.833 56.5,196.167 62.5,195.5C 62.5,195.167 62.5,194.833 62.5,194.5C 64.1667,194.5 65.8333,194.5 67.5,194.5C 66.7375,195.268 65.7375,195.768 64.5,196C 72.8333,196.667 81.1667,196.667 89.5,196C 86.9644,195.814 84.631,195.314 82.5,194.5C 83.5,194.5 84.5,194.5 85.5,194.5C 85.7035,192.61 85.0368,191.11 83.5,190C 85.6192,189.658 85.9526,188.825 84.5,187.5C 85.1667,187.5 85.8333,187.5 86.5,187.5C 86.5,187.833 86.5,188.167 86.5,188.5C 86.5,190.5 86.5,192.5 86.5,194.5C 87.8333,194.5 89.1667,194.5 90.5,194.5C 90.8333,194.5 91.1667,194.5 91.5,194.5C 92.4916,194.672 93.1583,194.338 93.5,193.5C 94.0431,193.56 94.3764,193.893 94.5,194.5C 93.624,195.251 92.624,195.751 91.5,196C 93.4727,196.495 95.4727,196.662 97.5,196.5C 97.5,192.833 97.5,189.167 97.5,185.5 Z"/></g>
<g><path style="opacity:1" fill="#201611" d="M 86.5,188.5 C 87.8638,194.857 89.0304,194.857 90,188.5C 90.4955,190.473 90.6621,192.473 90.5,194.5C 89.1667,194.5 87.8333,194.5 86.5,194.5C 86.5,192.5 86.5,190.5 86.5,188.5 Z"/></g>
<g><path style="opacity:1" fill="#070415" d="M 93.5,193.5 C 93.1583,194.338 92.4916,194.672 91.5,194.5C 91.3379,192.473 91.5045,190.473 92,188.5C 92.1981,190.382 92.6981,192.048 93.5,193.5 Z"/></g>
<g><path style="opacity:1" fill="#836b15" d="M 86.5,188.5 C 86.5,188.167 86.5,187.833 86.5,187.5C 88.8333,187.5 91.1667,187.5 93.5,187.5C 93.5,189.5 93.5,191.5 93.5,193.5C 92.6981,192.048 92.1981,190.382 92,188.5C 91.5045,190.473 91.3379,192.473 91.5,194.5C 91.1667,194.5 90.8333,194.5 90.5,194.5C 90.6621,192.473 90.4955,190.473 90,188.5C 89.0304,194.857 87.8638,194.857 86.5,188.5 Z"/></g>
<g><path style="opacity:1" fill="#434145" d="M 100.5,192.5 C 100.5,194.833 100.5,197.167 100.5,199.5C 75.8333,199.5 51.1667,199.5 26.5,199.5C 26.2053,197.265 26.5386,195.265 27.5,193.5C 27.5,195.167 27.5,196.833 27.5,198.5C 51.5,198.5 75.5,198.5 99.5,198.5C 99.2053,196.265 99.5386,194.265 100.5,192.5 Z"/></g>
</svg>
